<svg xmlns="http://www.w3.org/2000/svg" width="1294" height="929">
    <path fill-rule="evenodd" fill="#D9F8F1" d="M1205.506 420.791c-93.319 67.273-127.623-83.411-206.867-47.716-79.244 35.695-51.944 125.099-151.006 140.502-83.308 12.954-113.669-56.93-92.016-149.567 14.66-62.72-25.808-70.528-62.769-69.024-66.006 2.687-183.021 63.583-245.453-52.428C374.061 106.286 534.064 15.455 681.852 1.527c133.426-12.574 170.332 137.513 327.07 164.63 128.507 22.233 205.467-60.48 256.854 2.061 51.387 62.542 33.048 185.301-60.27 252.573zm-761.448-78.546c9.541 28.806-35.576 69.962-100.916 69.275-94.616-.995-135.08-74.228-100.586-125.031 15.339-22.591 69.715-9.165 109.895 16.382 45.529 28.948 76.842-5.202 91.607 39.374zM339.275 735.464c-7.867 87.131-57.3 184.736-153.198 192.008C90.179 934.744 7.15 870.89.625 784.85c-6.524-86.04 109.728-176.232 204.21-193.492 108.62-19.842 142.22 57.94 134.44 144.106zm693.665-338.899c93.383 10.255 94.03 121.294 45.36 136.239-47.398 14.554-88.286-23.197-100.831-67.788-10.954-38.936 8.545-73.605 55.471-68.451zm62.18 350.106c46.568-17.787 94.553-16.467 89.009 39.821-4.938 50.139-191.723 106.203-189.337 43.254 1.284-33.85 73.635-72.88 100.328-83.075z"/>
</svg>
