<svg xmlns="http://www.w3.org/2000/svg" viewBox="0 0 36.66 36.66">
    <title>Instagram</title>
    <g data-name="Layer 2" id="instagram">
        <path d="M32.3 0H4.36A4.36 4.36 0 0 0 0 4.35v28a4.35 4.35 0 0 0 4.36 4.34H32.3a4.35 4.35 0 0 0 4.36-4.34v-28A4.36 4.36 0 0 0 32.3 0zm-5.95 5.73a1.15 1.15 0 0 1 1.15-1.15h3.43a1.15 1.15 0 0 1 1.15 1.15v3.44a1.14 1.14 0 0 1-1.15 1.14H27.5a1.14 1.14 0 0 1-1.15-1.14zm-8 5.61a7 7 0 1 1-7 7 7 7 0 0 1 7.02-7zm14.88 20.74a1.16 1.16 0 0 1-1.15 1.15H4.58a1.15 1.15 0 0 1-1.14-1.15V14.89H8a7 7 0 0 0-.8 3.48 11.16 11.16 0 0 0 22.31 0 5.9 5.9 0 0 0-.89-3.48h4.59z" fill="#fff" data-name="06-SINGLE-WHITE"/>
    </g>
</svg>
