<svg xmlns="http://www.w3.org/2000/svg" viewBox="0 0 386.23 398.92">
    <defs>
        <style>
            .cls-2{fill:#f90066}
        </style>
    </defs>
    <g id="Layer_2" data-name="Layer 2">
        <g id="Group_1_copy_Image" data-name="Group 1 copy Image">
            <path d="M1.06 254.52c-21-119 275-278.18 362-236.18 67.34 32.5-23.49 277.3-126.88 308.81C125.12 361 12.2 317.61 1.06 254.52z" fill="#ffe700" id="Layer_2-2" data-name="Layer 2"/>
            <path class="cls-2" d="M213.3 398.92h-1l-10-4.2c1.84-9.48 3.67-18.91 5.53-28.47-13.12 1.55-26.06 2.11-39.16.43.08.52.13.87.19 1.21q2.51 12.86 5 25.69c.13.67 0 .93-.66 1.16-3.05 1.16-6.08 2.36-9.12 3.54a2.35 2.35 0 0 1-.54.06l-.21-.2 2-2.94-6.45.65-.13-.32 3.85-2.53-.08-.33h-5.38l-.07-.49a48.27 48.27 0 0 1 4.87-1.11c1.69-.24 3.42-.19 5.19-.27a3.45 3.45 0 0 0-.12-.49q-5.56-12.51-11.15-25a1.87 1.87 0 0 0-1.13-.91 144.46 144.46 0 0 1-33.81-12 132.4 132.4 0 0 1-51-45.62 149.9 149.9 0 0 1-19.16-42.23c-5.52-19.42-7.83-39.3-8.14-59.42-.13-8.49.09-17 .4-25.47q.36-9.89 1.36-19.73 1.48-14.4 3.43-28.76a176.78 176.78 0 0 1 10.81-42.24 151 151 0 0 1 11.94-23.81A134.17 134.17 0 0 1 116.43 20 144.05 144.05 0 0 1 223.56 4.19a120 120 0 0 1 45.86 22 127.17 127.17 0 0 1 28.2 31.1A176.29 176.29 0 0 1 318 101.9a256.82 256.82 0 0 1 11 71.24c.13 7.15-.11 14.32-.41 21.47-.24 5.85-.71 11.7-1.3 17.53a297.37 297.37 0 0 1-4.95 31.67c-4.06 19.29-9.67 38.09-18 56a112.52 112.52 0 0 1-11.89 20.56A111.3 111.3 0 0 1 254.94 352a129.45 129.45 0 0 1-32.71 11.76 1.81 1.81 0 0 0-1.54 1c-3.65 8.33-7.36 16.63-11 24.94a7.47 7.47 0 0 0-.28.77l.56.09c2.55.45 5.11.89 7.65 1.39a7.18 7.18 0 0 1 1.57.73l-.12.39h-4.77c1.13 1.12 2.51 1.63 3 3.18l-6.23-.68zM95.87 182.25l-.11.17a58.53 58.53 0 0 0 4.3 5.1c3.87 3.7 7.9 7.23 11.86 10.83A121.3 121.3 0 0 0 143.65 212a164.7 164.7 0 0 0 31.82 5.06 152.15 152.15 0 0 0 29.41-.75 136.25 136.25 0 0 0 34.58-9.14c10.63-4.38 20.67-9.72 28.76-18.13 1.58-1.64 3-3.47 4.43-5.21a1.3 1.3 0 0 0-.83-.1 55 55 0 0 1-5.79 1.06c-3.75.29-7.51.46-11.26.49a88.65 88.65 0 0 1-9.78-.39 77.34 77.34 0 0 1-24.1-6.88c-7.52-3.41-13.76-8.35-18-15.55-1.35-2.28-1.3-2.23-3.67-1-3.33 1.73-6 4.3-8.78 6.73a8.12 8.12 0 0 0-2.78 3.84c0 .2-.42.52-.52.48a2 2 0 0 1-.81-.63 17.91 17.91 0 0 0-1.82-2.59 87.85 87.85 0 0 0-6.78-5.88 42.75 42.75 0 0 0-5.17-3c-.25.4-.36.56-.45.74a36.27 36.27 0 0 1-14.9 14.93 74.2 74.2 0 0 1-31.6 9.21c-8.11.44-16.25.4-24.22-1.71-1.85-.42-3.68-.87-5.52-1.33zm112.42-65.18c-.18.49-.4 1-.54 1.47-1.12 3.87-2.2 7.76-3.34 11.62a27.13 27.13 0 0 0-.83 12.55 48.51 48.51 0 0 0 5.15 15.59c2.8 5 6.4 9.23 11.6 11.78 10.42 5.11 21.37 8 33.09 7.29a52 52 0 0 0 20.08-5.2c13.89-6.81 23.54-17.75 30.23-31.47a63.12 63.12 0 0 0 6.16-23.23 57.93 57.93 0 0 0-.68-16.32c-.89-4.19-2.17-8.3-3.38-12.43a42.76 42.76 0 0 0-15.16-22.1 27 27 0 0 0-12.39-5.7 43.56 43.56 0 0 0-16.09.51c-10.66 2.26-19.37 7.95-27.05 15.43a3.1 3.1 0 0 0-.26.47A43.17 43.17 0 0 1 260 74.67a42 42 0 0 1 22.25 11.64 43.28 43.28 0 0 1-23.29 73.59c-27.65 4.56-50.96-17.33-50.67-42.83zm-42.22-1.46a45.64 45.64 0 0 1-6.47 24 43.3 43.3 0 0 1-42.6 20.54 43.09 43.09 0 0 1-37.56-46.91c1.28-14.31 8.3-25.47 20.57-33s25.36-8.13 38.87-3.29c-.09-.17-.11-.24-.16-.28a58.47 58.47 0 0 0-16-10.57c-8.79-3.84-17.92-4.36-27.33-3.08-5.5.74-9.95 3.48-14.29 6.51a23.85 23.85 0 0 0-5.32 4.95 33.21 33.21 0 0 0-4.91 8 136.7 136.7 0 0 0-5.4 16.71 57.75 57.75 0 0 0-.58 23.13c3.06 18.92 12.38 34.11 27.89 45.31 10.84 7.83 23.13 11 36.46 9.79a72.1 72.1 0 0 0 20.91-5.4 28.79 28.79 0 0 0 12.4-9.12 39.43 39.43 0 0 0 7.23-16.41 46.42 46.42 0 0 0 1.13-14 48.42 48.42 0 0 0-3.41-13.83c-.5-1.04-.96-2.04-1.43-3.05zm-114.22 37.9l-.29.13c-.42 5-1 9.94-1.23 14.92-.49 8.71-1 17.43-1.17 26.15a261.78 261.78 0 0 0 3.27 46.78 170.18 170.18 0 0 0 11.69 40.7c.14.3.3.6.51 1 .22-.42.35-.65.46-.89a159.8 159.8 0 0 0 12.27-41.2 92.56 92.56 0 0 0 .53-25 124.47 124.47 0 0 0-6.32-27 119.69 119.69 0 0 0-18.85-34.58c-.28-.33-.58-.67-.87-1.01zm253.22 126.36h.42A304.32 304.32 0 0 0 321.08 152a4.89 4.89 0 0 0-1.45 1.11c-1.89 2.41-3.88 4.75-5.58 7.29a125.9 125.9 0 0 0-20.23 51.89 96.66 96.66 0 0 0 .22 29.94 154.11 154.11 0 0 0 7.68 29c1.06 2.89 2.28 5.77 3.35 8.64zM102.48 95a20.26 20.26 0 1 0 20.24 20.21A20.24 20.24 0 0 0 102.48 95zm129.75 0a20.26 20.26 0 1 0 20.23 20.21A20.23 20.23 0 0 0 232.23 95zm-18.18 164.5c-.44 1.21-.76 2.18-1.14 3.12-3.52 8.81-9.42 15-19 17-.65.14-.68.48-.58 1A40.88 40.88 0 0 0 197.5 293c3.78 6.95 9.37 11.19 17.52 11.57 9 .43 15.9-3.58 19.86-11.7a35.59 35.59 0 0 0 3.24-11.48c.15-1.29.17-1.28-1.14-1.42a24.32 24.32 0 0 1-13-5.42 32.44 32.44 0 0 1-9.33-13.49c-.17-.41-.34-.87-.6-1.56zm-52.18 1c-.15.3-.23.44-.29.58-2.72 7.74-7.23 13.91-15 17.19-.2.08-.29.42-.42.64s-.37.94-.67 1-.83-.21-1.13-.48c-.73-.68-1.35.07-2 .12-.12 0-.31.6-.26.88a39.06 39.06 0 0 0 4.87 13.76c3.84 6.37 9.34 10.06 16.92 10.38 9.32.38 16.45-3.95 20.1-12.53a59.6 59.6 0 0 0 2.43-7.79 34.07 34.07 0 0 0 .65-4.06l-2.27-.17a7 7 0 0 1-.72 1.59c-.12.15-.94 0-1-.15a6.35 6.35 0 0 1-.23-1.7c-10.78-1.98-17.01-9.3-20.98-19.25zm28.6 31c-.12.15-.17.2-.2.25-.21.53-.4 1.06-.62 1.58-3.45 8.21-9.06 14-18 16.17-.65.16-.67.51-.56 1a40.41 40.41 0 0 0 4 11.36c3.77 6.86 9.26 11.18 17.34 11.54 7.12.33 13.21-1.81 17.62-7.69a29.35 29.35 0 0 0 5.14-12.34 12 12 0 0 0 .06-2.16c0-.78-.41-1-1.13-1a24.65 24.65 0 0 1-16.61-7.55 33.5 33.5 0 0 1-6.6-10.16c-.12-.26-.27-.58-.44-.95zm29-41.8l-.62.2c-1.3.44-1.29.44-1 1.8a41.55 41.55 0 0 0 3.08 9.48 23.72 23.72 0 0 0 8.4 10.19 20.49 20.49 0 0 0 13.19 3 18.77 18.77 0 0 0 14.4-7.87 29.42 29.42 0 0 0 4.95-12c.38-2 .58-4 .87-6.06l-.34-.19a6 6 0 0 0-.8.51 1 1 0 0 1-1.55-.08 2.72 2.72 0 0 0-1.22-.78 25.06 25.06 0 0 1-14.61-8.76l-.72-.83A143.69 143.69 0 0 1 221.61 249a5.4 5.4 0 0 1 0 1.84 1.27 1.27 0 0 1-1.12.44 5.71 5.71 0 0 1-1.01-1.53zm4.36 59.64c-.71.14-1.3.24-1.86.4-.19 0-.45.26-.47.42a7.6 7.6 0 0 0-.1 2.37A35.33 35.33 0 0 0 225 322c3.77 6.8 9.23 11.11 17.27 11.48 7.83.36 14.24-2.28 18.6-9.05a32.07 32.07 0 0 0 4.37-11.72c.44-2.4.43-2.4-2-2.66-.05 0-.11 0-.23.12.46.56.59 1.19-.11 1.61a1.16 1.16 0 0 1-1.07-.09c-.74-.62-.21-1.22.32-1.82-10.41-2.26-16.39-9.24-20.31-18.73-3 8.47-8 14.85-16.64 17.85.57.6.85 1.19.34 1.77a1.26 1.26 0 0 1-1 .34c-.85-.23-.88-.9-.7-1.71zm-102.07-.1a3.69 3.69 0 0 1-.77.19c-1 .06-1.07.53-.88 1.39a41 41 0 0 0 3.66 10.55c3.74 7.12 9.29 11.68 17.64 12.05 5.85.27 11.18-1.1 15.5-5.31 3.6-3.52 5.57-7.93 6.79-12.71.41-1.63.68-3.3 1-5.05H163c-.13.73-.35 1.41-1.21 1.36-1-.06-.95-.9-.93-1.66-10.91-1.69-17.39-8.58-21.59-18.42-2.93 7.89-7.64 13.87-15.14 16.82a7.64 7.64 0 0 1-.25 1.85 1.08 1.08 0 0 1-1 .3 5.9 5.9 0 0 1-1.11-1.31zm-8.61-60.88a28.57 28.57 0 0 0 .24 3.21 38.51 38.51 0 0 0 3.17 9.75c3.71 7.63 9.29 12.69 18.19 13.09 6.32.28 12-1.36 16.32-6.21s6-10.57 6.84-16.75a.93.93 0 0 0-.49-.75 12.59 12.59 0 0 0-1.74-.26 3.49 3.49 0 0 1-.84-.23 15.3 15.3 0 0 0-1.42-.67 130 130 0 0 1-22.21-8.9c-.68-.36-1 0-1.34.36a24.09 24.09 0 0 1-11.39 6.51c-.47.13-.84.56-1.3.76s-.93.42-1.13.27c-.91-.68-1.81-.22-2.89-.13zm-2.55 13.71c-.2.48-.33.77-.46 1.07a27.54 27.54 0 0 1-8.55 11.73 3 3 0 0 0-1.25 2.51c-.14 2.42-.34 4.85-.57 7.26-.17 1.76-.46 3.5-.62 5.26-.07.71.16 1.46 0 2.15-.27 1.42-.67 2.82-1.06 4.21a1.64 1.64 0 0 0 .48 1.71 19.29 19.29 0 0 0 13.87 6.58c9.43.51 16.7-3.84 20.41-12.52a57.81 57.81 0 0 0 2.41-7.7 38 38 0 0 0 .67-4.14c-12.6-.19-20.39-7.02-25.32-18.07zm42.2 94.6l-.13.26c.7.22 1.36.56 2.09-.13a1.23 1.23 0 0 1 1.12.19c.5 1.19 1.61 1 2.52 1.26a1.71 1.71 0 0 0 1.78-.21c.19-.16.85.14 1.25.32s.66.58 1 .64c2.63.41 5.26.78 7.91 1.09a3 3 0 0 0 1.69-.34 17.55 17.55 0 0 0 6-5.37c3.49-4.89 5-10.47 5.6-16.35a1.07 1.07 0 0 0-1.6-1c-.89.4-1.31.16-1.55-.81a1.37 1.37 0 0 0-.52-.75c-5.32-3.37-8.81-8.22-11.32-13.87-.13-.29-.27-.56-.49-1-5.15 13.6-14.95 19.67-29.15 18.47 0 .17-.08.24-.06.3a36.47 36.47 0 0 0 6.25 15 2.24 2.24 0 0 0 1 .84c1.45.48 2.92.87 4.39 1.29l-.08-.34c.51-.23 1.05-.67 1.52-.61s.5.75.79 1.17zm78.69-20.23c-5.92-3-9.93-8.1-12.89-14.4-4.6 10.89-12.52 16.74-24.12 17.3-.3.51-.76 1.25-1.09 1.2-.48-.08-.86-.74-1.28-1.15a1.5 1.5 0 0 0-1-.32l-1.26-.1a38.3 38.3 0 0 0 5.73 14.63 20.27 20.27 0 0 0 6.09 6 2.66 2.66 0 0 0 1.47.44c1.73-.13 3.45-.36 5.16-.62a2.08 2.08 0 0 0 1-.64 1.11 1.11 0 0 1 1.5-.25 2.32 2.32 0 0 0 1.34.31c1-.16 2-.52 3.09-.71s2.36-.29 3.53-.51a1.52 1.52 0 0 0 .85-.66c.38-.55.91-.92 1.4-.48.7.64 1.34.39 2 .22 1.23-.3 2.44-.73 3.68-.91a4.37 4.37 0 0 0 3.21-2.39 35.41 35.41 0 0 0 4.67-14.33c.17-1.33.16-1.35-1-1.61a7.71 7.71 0 0 1-1.36 1.26c-.18.1-.9-.27-.93-.48a6.71 6.71 0 0 1 .22-1.75zm34.35-74.88c-3 8.15-8.09 14.47-16.6 17.44-.17.6-.34 1.37-.78 1.59-.93.47-1.13-.58-1.52-1.13a8.39 8.39 0 0 1-1.32.24c-.85 0-1 .41-.77 1.16 1 3.21 1.79 6.48 2.94 9.63a23 23 0 0 0 4.93 7.81c5 5.38 11.25 6.92 18.3 6 1.2-.15 2.37-.48 3.61-.73l-.5-2.2a8.44 8.44 0 0 1-1.88-.16 1.22 1.22 0 0 1-.3-1 10.43 10.43 0 0 1 1.73-1v-.09a163.15 163.15 0 0 1-3.18-29.15 1.73 1.73 0 0 0-.17-.76c-1.48-2.45-2.97-5-4.48-7.6zm-56.15-8.94c-14.79 3.82-29.4 3-44.09 0a4.28 4.28 0 0 0 .13.93 79.11 79.11 0 0 0 3.14 8.5c3.64 7.34 9.3 12 17.83 12.35 6 .25 11.44-1.22 15.75-5.67s6.17-9.87 7.25-16.06zm38.79-17.37c.16.22.26.39.38.54 5.35 6.41 15.74 8.85 23.38 5.45a1.54 1.54 0 0 0 .71-1q2.48-15.66 6.42-31a6 6 0 0 0 .1-.91c-8.82 10.95-19.47 19.44-30.98 26.97zm-151.13-.93a5.24 5.24 0 0 0 2.74 5.23c7 4.06 14.12 4.09 21.32.73a33.8 33.8 0 0 0 4.17-2.8 136.62 136.62 0 0 1-33.68-28.37l5.1 23.16c1.2-.12 1.87.19 1.9.95.03 1.07-.74 1.18-1.54 1.15zm-.76 69.71c-.11.29-.18.44-.22.59a140.64 140.64 0 0 1-5.14 17 1.35 1.35 0 0 0 .32 1.17c3.17 2.95 6.39 5.84 9.58 8.77a.84.84 0 0 0 1.3 0 45.66 45.66 0 0 0 4.38-4.05 27.11 27.11 0 0 0 5.44-11.89c.38-1.73.62-3.5.94-5.36a25.58 25.58 0 0 1-16.59-6.18zm33.73 45.31c.55-1.78 1.15-3.47 1.58-5.19s.69-3.53 1-5.3a1.42 1.42 0 0 0-1-1.86 13.49 13.49 0 0 1-2.49-1.25c-5.68-3.37-9.31-8.44-11.91-14.36-.13-.31-.27-.62-.52-1.17-2.06 6.31-5.17 11.59-10.38 15.5.33.26.54.43.75.58A122.14 122.14 0 0 0 125.23 347a8.1 8.1 0 0 0 1.75.35c.31.07.76.17.85.38.44 1.09 1.45 1.18 2.5 1.66zM84.73 235.67c0 .22-.09.44-.12.65-.27 2.25-.37 4.54-.85 6.74-1.39 6.3-2.59 12.67-4.51 18.81-1.84 5.89-4.45 11.54-6.79 17.27-1.42 3.48-3 6.91-4.44 10.37a1.5 1.5 0 0 0 .13 1.11c.83 1.59 1.7 3.16 2.57 4.74.4.71.81 1.41 1.34 2.34 10.32-19.62 15.52-40 12.67-62.03zm210.86 35.52a114 114 0 0 1-5.22-14.88c-1.62-6.7-3.24-13.4-3.78-20.3a3.44 3.44 0 0 0-.15-.55c-2.76 21.58 2.22 41.6 12.12 60.93.26-.51.41-.76.53-1 1-2.26 2-4.5 2.92-6.79a2.62 2.62 0 0 0 0-1.77m-33.45 35c-4.77 11.71-13.43 17.69-26.31 17.46a41.71 41.71 0 0 0 3.21 9.94 107.83 107.83 0 0 0 28.28-18.25zM99.2 245.7l1.65 22.09c.07-.09.19-.2.29-.33a29.89 29.89 0 0 0 6.15-18.7c0-.63-.37-.66-.81-.76-1.39-.33-2.79-.64-4.15-1.06-1.1-.34-2.15-.85-3.13-1.24zM276 309.25c-1.33.26-2.64.48-3.92.79a.9.9 0 0 0-.41.77 37.92 37.92 0 0 0 5.19 14.13 15.54 15.54 0 0 0 1.46 1.69c.92-1 1.76-1.82 2.54-2.71a.91.91 0 0 0 .14-.78c-.65-1.55-1.46-3-2-4.62-1.12-3.04-2-6.13-3-9.27zM180 361c4.81 0 9.32.17 14.06-.24a35.93 35.93 0 0 1-7.09-11.19A31.74 31.74 0 0 1 180 361zm92-113.5l-3.4.7a33.47 33.47 0 0 0 2.43 9.49c.26-3.39.58-6.69.91-10.23zm-52-22a1.72 1.72 0 0 0 2-1.64 1.81 1.81 0 0 0-1.85-1.81 1.91 1.91 0 0 0-2.1 1.79 1.78 1.78 0 0 0 1.95 1.61zm-63.85-.17a1.89 1.89 0 0 0-2-1.86 1.73 1.73 0 0 0-1.86 1.66 2.32 2.32 0 0 0 2.16 2 1.73 1.73 0 0 0 1.67-1.85zm6.95 3.11a1.83 1.83 0 0 0 2-1.69 1.77 1.77 0 0 0-1.8-1.74 1.94 1.94 0 0 0-2 1.78 1.72 1.72 0 0 0 1.77 1.6zm-63-28.79a1.78 1.78 0 0 0 1.73 1.92 1.84 1.84 0 0 0 1.74-1.83 1.89 1.89 0 0 0-1.89-1.91 1.68 1.68 0 0 0-1.63 1.77zm100.64 26a1.74 1.74 0 0 0-1.74 1.69 2 2 0 0 0 2 1.87 1.8 1.8 0 0 0 1.73-1.82 1.9 1.9 0 0 0-2.04-1.8zm-55-1a1.8 1.8 0 0 0 1.69-1.86 1.92 1.92 0 0 0-1.93-1.76 1.65 1.65 0 0 0-1.63 1.67 2 2 0 0 0 1.84 1.86zm134.46-37.71a1.83 1.83 0 0 0-1.83 1.84 1.69 1.69 0 0 0 1.66 1.76 1.94 1.94 0 0 0 1.85-1.86 1.71 1.71 0 0 0-1.68-1.74zm-90.1 42.7a1.72 1.72 0 0 0 1.8-1.63 1.79 1.79 0 0 0-1.86-1.8 1.72 1.72 0 1 0 .06 3.43zM115 208a2 2 0 0 0-1.88 1.85 1.63 1.63 0 0 0 1.59 1.7 2 2 0 0 0 2-1.89A1.69 1.69 0 0 0 115 208zm172.7-25.53a1.72 1.72 0 0 0-1.8-1.71 1.67 1.67 0 0 0-1.68 1.72 1.74 1.74 0 1 0 3.48 0zM95.32 192a1.65 1.65 0 0 0-1.64 1.67 1.93 1.93 0 0 0 1.77 1.94 1.68 1.68 0 0 0 1.69-1.72 1.92 1.92 0 0 0-1.82-1.89zm-7-4.06a1.71 1.71 0 1 0 3.41.2 1.85 1.85 0 0 0-1.69-1.88 1.65 1.65 0 0 0-1.71 1.66zm-1.57-5.86a1.6 1.6 0 0 0-1.57-1.69 1.84 1.84 0 0 0-1.84 1.82A1.68 1.68 0 0 0 85 184a1.89 1.89 0 0 0 1.76-1.94zm84.81 44a1.7 1.7 0 0 0-1.6 1.71 1.85 1.85 0 0 0 1.84 1.83 1.66 1.66 0 0 0 1.59-1.79 1.88 1.88 0 0 0-1.82-1.83zm-48-12.36a1.65 1.65 0 0 0-1.68-1.73 1.72 1.72 0 0 0-1.82 1.7 1.76 1.76 0 0 0 1.7 1.75 1.71 1.71 0 0 0 1.84-1.78zm5.67 5a1.66 1.66 0 0 0 1.68-1.61 1.84 1.84 0 0 0-1.78-1.88 1.61 1.61 0 0 0-1.68 1.59 1.88 1.88 0 0 0 1.82 1.86zm9.87 1.29a1.72 1.72 0 0 0-1.71-1.71 1.66 1.66 0 1 0-.1 3.32 1.7 1.7 0 0 0 1.85-1.62zm42 6.68a1.69 1.69 0 0 0-1.64 1.67 1.72 1.72 0 0 0 3.44 0 1.78 1.78 0 0 0-1.79-1.71zm74.83-17.54a1.73 1.73 0 0 0-3.45-.06 1.77 1.77 0 0 0 1.66 1.68 1.7 1.7 0 0 0 1.8-1.66zM80.44 177.66a1.78 1.78 0 0 0 1.79-1.66 1.65 1.65 0 0 0-1.58-1.71 1.78 1.78 0 0 0-1.84 1.71 1.69 1.69 0 0 0 1.63 1.66zM260 204.91a1.63 1.63 0 0 0 1.61 1.67 1.71 1.71 0 0 0 1.79-1.61 1.66 1.66 0 0 0-1.64-1.74 1.79 1.79 0 0 0-1.76 1.68zm-48.77 20.5a1.72 1.72 0 0 0-3.43.14 1.72 1.72 0 0 0 3.43-.14zm37-11.32a1.74 1.74 0 0 0-1.7-1.71 1.69 1.69 0 0 0-1.69 1.61 1.75 1.75 0 0 0 1.65 1.76 1.69 1.69 0 0 0 1.74-1.66zm21.17-13.88a1.64 1.64 0 0 0-1.63-1.65 1.73 1.73 0 0 0-1.79 1.63 1.66 1.66 0 0 0 1.57 1.72 1.79 1.79 0 0 0 1.85-1.7zm21-25.56a1.59 1.59 0 0 0-1.6 1.57 1.68 1.68 0 0 0 1.71 1.8 1.81 1.81 0 0 0 1.63-1.82 1.65 1.65 0 0 0-1.77-1.55zm-14.32 20.08a1.68 1.68 0 0 0-1.69-1.61 1.71 1.71 0 0 0-1.73 1.68 1.64 1.64 0 0 0 1.61 1.67 1.82 1.82 0 0 0 1.78-1.74zm-39.78 23a1.6 1.6 0 0 0 1.44 1.73 1.68 1.68 0 0 0 1.82-1.47 1.59 1.59 0 0 0-1.47-1.79 1.72 1.72 0 0 0-1.82 1.54zM108.86 207a1.66 1.66 0 0 0 1.63-1.55 1.61 1.61 0 1 0-1.63 1.55zm119.84 11.72a1.62 1.62 0 0 0-.1 3.23 1.62 1.62 0 0 0 .1-3.23zm66-51.1a1.64 1.64 0 0 0-1.54 1.64 1.48 1.48 0 0 0 1.49 1.53 1.61 1.61 0 0 0 1.61-1.68 1.53 1.53 0 0 0-1.57-1.49zM77.37 169.3a1.52 1.52 0 0 0-1.52-1.51 1.62 1.62 0 0 0-1.58 1.47 1.55 1.55 0 1 0 3.1 0zm162.78 182.1l-1.49-3.53-1.76 4.74zm-104.65.17l1.67.63-1-2.22z"/>
            <path class="cls-2" d="M205 296.69c-.38.29-.72.74-1.13.81a.86.86 0 0 1-1-1c.06-.4.57-1 .91-1s.82.48 1.23.76zM207.66 300.49c-.29-.41-.8-.83-.79-1.23s.6-.68.94-1c.36.37.91.68 1 1.1s-.45.77-.71 1.15zM202.41 292.64c-.39.25-.85.77-1.17.7s-.73-.66-1.09-1c.34-.33.69-.93 1-.93s.82.51 1.24.8zM198.86 289.82c-.27-.42-.76-.84-.74-1.25a1.4 1.4 0 0 1 .95-1 .87.87 0 0 1 1 1c-.07.42-.49.78-.76 1.17zM234.57 283.3c-.24-.41-.74-.88-.65-1.19s.68-.71 1.06-1.06c.32.35.91.72.89 1.06s-.54.8-.85 1.21zM196.52 281.85c-.27-.39-.7-.75-.77-1.17a.85.85 0 0 1 1-1.06 1.43 1.43 0 0 1 .93 1c0 .37-.44.8-.69 1.2zM231.27 294.41c-.4.3-.79.82-1.2.84s-.7-.58-1-.9c.35-.37.64-.94 1-1.06s.78.42 1.18.66zM199.07 284.94c-.41.29-.82.8-1.23.79s-.88-.57-1-1a.86.86 0 0 1 1-1c.42.06.78.49 1.17.75zM222.93 298.8c.26.39.76.82.71 1.17a1.39 1.39 0 0 1-1 .93c-.33 0-.89-.59-.93-1s.47-.76.74-1.15zM217.65 302.12c-.42-.66-.89-1.07-.84-1.4a1.28 1.28 0 0 1 .92-.86 1.25 1.25 0 0 1 .86.93c.03.33-.46.7-.94 1.33zM233.65 285.15c.48.64 1 1 .94 1.35s-.55.66-.85 1c-.33-.3-.87-.58-.93-.93s.41-.74.84-1.42zM226.78 298.7c-.46-.65-.93-1-.9-1.36s.56-.65.88-1c.32.31.85.6.89.95s-.43.71-.87 1.41zM233.58 290.49c-.67.43-1.08.89-1.4.84a.89.89 0 0 1 .06-1.78c.33-.03.7.45 1.34.94zM212.36 302.22c-.44-.67-.91-1.07-.86-1.4s.58-.63.91-.95c.31.33.83.63.86 1s-.45.7-.91 1.35zM151.08 291.82c-.7.52-1.07 1-1.5 1.07-.71.08-1-.53-1.06-1.19s.37-1.19 1-1.05c.48.09.86.61 1.56 1.17zM173 299.69c-.39.26-.76.68-1.18.74a.87.87 0 0 1-1-1 1.41 1.41 0 0 1 1-.94c.4 0 .82.49 1.23.77zM146.61 282.3c.25.4.76.86.69 1.18s-.66.73-1 1.09c-.32-.35-.9-.69-.9-1s.5-.83.78-1.24zM152.87 295.31c-.38.27-.74.71-1.15.77a.86.86 0 0 1-1-1.06c.09-.39.62-1 .95-1s.8.52 1.19.81zM167.4 299.5c.28.38.73.72.82 1.14a.85.85 0 0 1-1 1.05 1.47 1.47 0 0 1-1-1c-.06-.36.43-.79.67-1.19zM164 301c-.38.28-.78.8-1.13.77a1.41 1.41 0 0 1-1-.9 1.33 1.33 0 0 1 .86-1c.4 0 .85.44 1.28.7zM176.75 297.26c-.39.25-.83.73-1.18.67a1.47 1.47 0 0 1-1-1 .84.84 0 0 1 1-1c.41.09.75.55 1.11.85zM178.35 292.6c.42.68.88 1.09.83 1.43s-.6.62-.93.93c-.3-.34-.82-.66-.85-1s.47-.72.95-1.36zM156.28 298.15c-.64.48-1 1-1.34 1s-.67-.55-1-.85c.31-.33.58-.87.93-.93s.73.35 1.41.78zM180.77 290.86c-.26-.37-.74-.75-.71-1.09s.56-.65.88-1c.32.31.86.59.91.94s-.43.74-.67 1.11zM160.22 300.15c-.66.44-1.06.91-1.38.86a1.27 1.27 0 0 1-.86-.91c0-.32.55-.84.9-.87s.71.46 1.34.92zM149.08 288.24c-.36.26-.74.74-1.08.71s-.66-.55-1-.86c.31-.32.59-.86.93-.91s.74.41 1.12.65zM184 285.73c-.66.44-1.06.91-1.39.87a1.29 1.29 0 0 1-.86-.91c0-.31.55-.84.89-.87s.69.45 1.36.91zM225.16 259.56c-.4.3-.8.82-1.2.82s-.88-.56-1-.95a.86.86 0 0 1 1-1.07c.42.05.79.49 1.18.76zM249.42 267.62c.28.38.73.73.79 1.13a.86.86 0 0 1-1 1c-.4-.09-1-.6-1-.93s.51-.8.8-1.21zM226.5 262.58c.28.41.78.83.78 1.24s-.7 1-.94.92a1.63 1.63 0 0 1-1-1c-.07-.31.47-.75.73-1.14zM233.3 268.92c.29.39.81.79.8 1.18s-.56.87-.95 1a.87.87 0 0 1-1.06-1c0-.41.49-.77.76-1.15zM252.84 267.18c-.27-.38-.71-.73-.78-1.14a.84.84 0 0 1 1-1.05 1.45 1.45 0 0 1 .95 1c0 .36-.44.79-.69 1.19zM229 268.21c-.48-.63-1-1-1-1.33s.54-.92.86-.93a1.25 1.25 0 0 1 .93.85c.05.33-.42.74-.79 1.41zM244.31 269.1c.46.65.95 1 .91 1.36a1.28 1.28 0 0 1-.9.89c-.33 0-.87-.53-.91-.88s.44-.72.9-1.37zM257.2 257.56c.36-.26.73-.76 1.06-.74s.67.55 1 .85c-.31.33-.57.88-.92.93s-.75-.4-1.13-.63zM261.24 253c-.66.45-1.06.92-1.39.88a1.27 1.27 0 0 1-.88-.9c0-.31.55-.84.9-.88s.72.49 1.37.9zM223.38 254.8c-.64.47-1 1-1.35.93a1.31 1.31 0 0 1-.9-.88 1.24 1.24 0 0 1 .86-.91c.33-.05.73.42 1.39.86zM240.13 270.93c-.63.49-1 1-1.33 1a1.27 1.27 0 0 1-.92-.86 1.25 1.25 0 0 1 .84-.93c.33-.09.74.37 1.41.79zM256 263.65c-.45-.64-.93-1-.9-1.35a.9.9 0 0 1 1.79 0c.11.32-.41.7-.89 1.35zM229.39 323.69c-.27-.42-.77-.85-.75-1.26a1.37 1.37 0 0 1 1-1 .87.87 0 0 1 1 1c-.06.42-.49.79-.75 1.18zM255.55 326.2c-.42.3-.83.81-1.25.81s-1-.7-.92-.95a1.61 1.61 0 0 1 1-1c.31-.07.76.46 1.15.73zM236.62 327.14c.3.39.83.78.84 1.19s-.53.9-.92 1a.87.87 0 0 1-1.06-1c0-.41.45-.79.7-1.19zM227.3 314.49c-.41.29-.81.8-1.23.8s-1-.67-.94-.9a1.65 1.65 0 0 1 1-1.05c.3-.08.76.44 1.15.7zM232.11 327.27c-.27-.38-.69-.73-.79-1.15a.86.86 0 0 1 .93-1.1 1.38 1.38 0 0 1 1 .93c0 .41-.42.86-.66 1.3zM247.78 329.39c-.38.27-.74.69-1.16.76a.85.85 0 0 1-1-1 1.42 1.42 0 0 1 .95-1c.4 0 .83.48 1.24.75zM242.1 328.22c.28.37.8.76.78 1.12a1.49 1.49 0 0 1-.86 1.06.85.85 0 0 1-1.07-1c.05-.42.46-.8.71-1.2zM261.25 313.59c.46.64.95 1 .92 1.36s-.56.9-.88.9-.86-.52-.91-.87.43-.73.87-1.39zM250.65 329.72c-.43-.68-.89-1.1-.84-1.43s.61-.62.94-.92c.3.33.82.65.84 1s-.46.71-.94 1.35zM227.68 317.28c.46.64.95 1 .91 1.35a1.25 1.25 0 0 1-.88.9 1.28 1.28 0 0 1-.91-.87c-.05-.33.44-.73.88-1.38zM257.58 324.11c-.43-.66-.89-1.07-.84-1.41a1.29 1.29 0 0 1 .92-.85 1.27 1.27 0 0 1 .86.92c.03.34-.47.71-.94 1.34zM261.21 318.65c-.65.45-1 .93-1.37.89s-.65-.56-1-.87c.32-.32.6-.85.95-.89s.76.43 1.42.87zM127.59 319.83c.28.42.79.84.77 1.25s-.62.67-1 1c-.33-.35-.89-.67-.94-1.06s.44-.79.69-1.19zM134.2 327.48c-.39.26-.76.69-1.18.74a.88.88 0 0 1-1-1 1.41 1.41 0 0 1 1-.93c.41 0 .83.49 1.25.76zM137 327.81c.29.41.8.82.79 1.22s-.58.87-1 1a.86.86 0 0 1-1-1c.07-.42.51-.78.79-1.17zM131.1 324.57c-.38.28-.73.73-1.14.8a.87.87 0 0 1-1-1c.06-.38.57-1 .87-.95s.85.46 1.27.73zM145.59 330.48c-.23-.37-.69-.77-.65-1.1s.58-.64.9-1c.31.33.83.63.87 1s-.45.71-.7 1.08zM160.76 316.73c-.47-.65-.95-1-.92-1.36s.57-.66.88-1c.32.31.86.6.9.95s-.43.75-.86 1.41zM156.75 321.55c.46.64.95 1 .91 1.35s-.56.66-.87 1c-.33-.32-.86-.6-.91-1s.43-.69.87-1.35zM155 325.87c-.64.49-1 1-1.34 1a1.3 1.3 0 0 1-.93-.87 1.28 1.28 0 0 1 .86-.92c.32-.08.73.37 1.41.79zM127.08 317.35c-.67.42-1.08.89-1.41.84s-.62-.6-.93-.93c.34-.31.65-.82 1-.85s.71.47 1.34.94zM150.4 326.78c.42.67.88 1.08.83 1.41s-.6.62-.93.92c-.3-.33-.82-.64-.85-1s.47-.7.95-1.33zM141.24 328.32c.45.66.92 1.06.88 1.39s-.57.65-.89 1c-.31-.33-.84-.63-.88-1s.44-.71.89-1.39zM159 320.6c-.43-.67-.89-1.08-.84-1.41s.6-.62.92-.93c.31.33.84.64.86 1s-.46.74-.94 1.34zM125.4 313.08c-.64.46-1 .94-1.35.91s-.89-.56-.89-.88.52-.85.86-.9.73.43 1.38.87zM125.54 269c-.25-.4-.67-.79-.71-1.21a.88.88 0 0 1 1-1c.39.09.94.66.93 1s-.53.82-.83 1.23zM117.19 253.55c-.26-.39-.68-.76-.75-1.18a.87.87 0 0 1 1-1.05 1.41 1.41 0 0 1 .94 1c0 .41-.47.84-.73 1.26zM123.77 265.51c-.37.29-.71.75-1.12.82a.86.86 0 0 1-1-1c.07-.4.57-1 .91-1s.81.49 1.22.77zM119.58 257.28c-.39.3-.79.82-1.18.81s-.87-.57-1-1a.85.85 0 0 1 1-1.05c.41.05.77.5 1.15.77zM121.46 261.92c-.39.25-.77.69-1.18.73a.87.87 0 0 1-1-1.07c.09-.39.64-.95 1-.95s.79.54 1.19.85zM146.54 265.73c.44.67.91 1.08.86 1.41a.9.9 0 1 1-1.8-.06c-.03-.34.47-.71.94-1.35zM142.72 267.48c.45.66.93 1.06.88 1.38a1.26 1.26 0 0 1-.9.89 1.3 1.3 0 0 1-.89-.9c-.03-.33.45-.72.91-1.37zM135 270.79c-.37.26-.76.73-1.09.7a1.27 1.27 0 0 1-.89-.89c0-.32.53-.86.88-.9s.73.43 1.09.68zM154.56 252.25c.45.66.92 1.05.88 1.38a.89.89 0 1 1-1.78 0c-.04-.33.44-.72.9-1.38zM137.94 271.87c-.46-.66-.94-1.05-.9-1.38a1.28 1.28 0 0 1 .91-.88c.31 0 .84.54.88.89s-.44.72-.89 1.37zM153.05 258.66c-.25-.36-.73-.75-.69-1.08s.56-.65.87-1c.32.32.85.61.89 1s-.42.72-.66 1.09zM129.52 268.29c.47.63 1 1 .93 1.34s-.57.89-.89.89a1.25 1.25 0 0 1-.91-.86c-.04-.33.43-.73.87-1.37zM152.74 261.09c-.38.23-.79.69-1.12.64s-.62-.61-.92-.94c.33-.3.65-.82 1-.84s.7.46 1.06.73zM149.42 265.83c-.45-.67-.92-1.06-.88-1.39s.57-.65.89-1c.32.32.85.62.89 1s-.44.73-.9 1.39zM129.67 292.21c-.51-.64-1-1-1.06-1.37-.12-.64.36-1 1-1.06s1.16.36 1 1c0 .43-.45.77-.94 1.43zM109.42 299.38c.27.42.75.85.74 1.26s-.57.88-1 .95a.88.88 0 0 1-1-1.06c.06-.41.48-.77.74-1.16zM101.33 294.14c.27.42.77.85.75 1.26a1.34 1.34 0 0 1-1 .88 1.39 1.39 0 0 1-.94-1c-.05-.35.46-.77.72-1.16zM119.53 298.36c.44.66.92 1.06.87 1.39s-.58.64-.91.95c-.31-.32-.84-.62-.88-1s.46-.7.92-1.34zM104.76 296.84c.45.66.92 1.05.88 1.38a1.27 1.27 0 0 1-.9.88c-.31 0-.84-.54-.88-.89s.44-.72.9-1.37zM132.23 281.79c.42.67.88 1.08.83 1.41a.89.89 0 0 1-1.78-.08c-.02-.34.47-.7.95-1.33zM128.54 294.47c-.67.41-1.09.86-1.42.8s-.85-.62-.82-.93a1.26 1.26 0 0 1 .93-.85c.33-.02.69.51 1.31.98zM125.12 297.57c-.66.42-1.07.88-1.4.83s-.62-.59-.93-.92c.33-.3.64-.82 1-.85s.7.47 1.33.94zM115.53 300.69c-.62.47-1 1-1.33.94s-.66-.54-1-.85c.3-.33.58-.87.92-.92s.75.41 1.41.83zM132.66 286.66c-.65.46-1 .95-1.36.91s-.65-.55-1-.86c.31-.32.59-.86.94-.91s.76.42 1.42.86zM144 341.39c-.73.52-1.13 1-1.6 1.09-.64.09-1-.46-1-1.11s.41-1.23 1.11-1.11c.42.08.77.58 1.49 1.13zM146 348.59c.26.42.75.86.72 1.27a1.4 1.4 0 0 1-1 .95.86.86 0 0 1-1-1.07c.06-.41.49-.78.76-1.16zM149.7 353.93c-.38.27-.73.71-1.14.78a.88.88 0 0 1-1.05-1c.06-.39.58-1 .92-1s.83.48 1.25.76zM144.21 344.12c.25.43.71.87.68 1.27a1.37 1.37 0 0 1-1 .95.85.85 0 0 1-1-1.07c.07-.42.49-.78.75-1.16zM170.2 357.72c-.48-.69-.94-1.06-1-1.46a.86.86 0 0 1 1.09-.95c.39.09 1 .63.95.95s-.52.74-1.04 1.46zM181.8 341.34c-.42.27-.84.77-1.25.75s-.84-.61-.9-1a.87.87 0 0 1 1-1c.41.08.75.53 1.12.81zM165.72 356.73c.43.68.89 1.1.84 1.42s-.61.62-.94.93c-.3-.34-.82-.65-.85-1s.47-.71.95-1.35zM175.9 352.93c-.67.43-1.08.9-1.41.85s-.63-.6-.94-.93c.33-.31.64-.83 1-.86s.71.46 1.35.94zM180.55 345.57c-.65.45-1.05.92-1.37.88a1.28 1.28 0 0 1-.87-.91 1.25 1.25 0 0 1 .9-.88c.33-.03.71.45 1.34.91zM178.81 349.33c-.68.41-1.09.87-1.41.81a1.27 1.27 0 0 1-.84-.93 1.29 1.29 0 0 1 .93-.85c.33-.02.69.48 1.32.97zM226.33 350.12a3.74 3.74 0 0 1 1.3-.69.84.84 0 0 1 .93 1.09 1.58 1.58 0 0 1-1.13.93c-.36 0-.76-.55-1.14-.86zM198.94 350.94c-.41.28-.83.79-1.22.77s-.84-.6-.92-1a.85.85 0 0 1 1-1c.41.06.75.52 1.13.8zM193.48 343.47c.39-.26.75-.7 1.16-.75a.84.84 0 0 1 1 1.06c-.1.4-.63 1-1 1s-.79-.53-1.18-.83zM201.61 355c-.39.25-.82.73-1.17.68a1.45 1.45 0 0 1-.95-1 .81.81 0 0 1 1-1c.42.08.75.53 1.12.82zM230.82 346.48c-.37.23-.78.69-1.11.64s-.63-.6-.93-.92c.33-.31.64-.83 1-.86s.71.46 1.07.72zM197.53 347.25c-.65.47-1 1-1.36.93s-.66-.56-1-.86c.3-.33.58-.87.93-.92s.75.41 1.43.85zM231 343.65c-.43-.68-.89-1.09-.84-1.42a1.27 1.27 0 0 1 .93-.84 1.24 1.24 0 0 1 .85.92c.06.33-.45.69-.94 1.34zM226 354.17c-.65.46-1 .95-1.36.92s-.66-.56-1-.87c.31-.33.59-.87.94-.92s.71.43 1.42.87zM206.25 357.8c-.66.44-1.06.91-1.4.87s-.63-.58-.95-.9c.33-.32.63-.85 1-.88s.7.45 1.35.91zM254 295.46c-.26-.4-.75-.83-.71-1.19a1.45 1.45 0 0 1 .94-1 .87.87 0 0 1 1 1.05c-.07.42-.51.77-.79 1.16zM249.69 282.27c.26.42.74.86.72 1.27s-.62.66-1 1c-.33-.38-.87-.72-.95-1.14s.47-.76.74-1.14zM253.7 291.07c-.39.25-.76.66-1.17.71a.86.86 0 0 1-1-1 1.39 1.39 0 0 1 1-.93c.4 0 .81.5 1.22.79zM250.49 288.51c-.26-.39-.68-.76-.76-1.19a.84.84 0 0 1 1-1 1.45 1.45 0 0 1 .91 1c0 .37-.44.79-.69 1.19zM263.43 299.66c.5.64 1 1 1 1.4.11.63-.37 1.06-1 1.06s-1.14-.42-1-1.05c.04-.41.51-.76 1-1.41zM256.09 298.55c-.24-.4-.64-.78-.7-1.2a.87.87 0 0 1 1-1 1.42 1.42 0 0 1 .92 1c0 .4-.48.82-.76 1.24zM269.44 301.69c-.4.25-.82.74-1.17.69s-.68-.61-1-.95c.34-.33.65-.89 1-.93s.76.46 1.15.73zM259.77 300.69c-.42-.66-.89-1.07-.84-1.4s.61-.87.92-.85a1.29 1.29 0 0 1 .87.91c.02.34-.47.71-.95 1.34zM268 238.25c-.37.29-.71.74-1.12.81a.87.87 0 0 1-1.07-1 1.43 1.43 0 0 1 .92-1c.4 0 .83.46 1.25.72zM255.43 235.4c-.37.29-.71.75-1.12.83a.84.84 0 0 1-1-1 1.46 1.46 0 0 1 1-1c.36 0 .78.46 1.18.72zM271.37 238.19c-.46-.63-.95-1-.92-1.34s.55-.66.85-1c.33.31.87.59.92.94s-.42.74-.85 1.4zM258.05 238.33c-.25-.37-.73-.76-.69-1.09s.56-.65.88-1c.32.32.85.61.9 1s-.44.73-.69 1.1zM263.16 238.12c-.37.24-.77.71-1.1.66s-.63-.58-.95-.9c.33-.31.63-.83 1-.87s.72.44 1.08.69zM119.22 237.28c-.3.24-.69.77-1.15.84-.74.1-1.1-.52-1.13-1.21a1 1 0 0 1 1-1.09c.75-.02 1.15.43 1.28 1.46zM105.35 237.87c.38-.27.73-.68 1.15-.77a1.09 1.09 0 0 1 1.14 1.28 1.68 1.68 0 0 1-1 1c-.56.1-1.15-.65-1.29-1.51zM103.77 236.28c-.66.54-1 1.06-1.43 1.12-.75.1-1.1-.51-1.11-1.21s.4-1.17 1-1.05c.48.09.86.6 1.54 1.14zM112.28 239.72c-.52-.72-1-1.12-1.11-1.6-.12-.64.4-1 1.06-1s1.25.48 1.11 1.22c-.07.41-.55.74-1.06 1.38zM129.06 345.27c-.43-.65-.91-1-.87-1.38a.9.9 0 0 1 1.79 0c.02.35-.46.74-.92 1.38zM130 337.55c.48.64 1 1 .94 1.35s-.54.66-.84 1c-.33-.3-.87-.57-.93-.92s.4-.75.83-1.43zM247.45 343.41c.27.38.81.82.75 1.13s-.63.77-1 1.15c-.34-.33-1-.65-1-1s.48-.85.75-1.27zM247 341c-.43.25-.89.72-1.28.67a1.42 1.42 0 0 1-.88-1 .85.85 0 0 1 1.1-.92c.41.09.73.55 1.09.85z"/>
        </g>
    </g>
</svg>
